HIERARCHY
ROOT Hips
{
    OFFSET 0.000000 0.000000 0.000000
    CHANNELS 6 Xposition Yposition Zposition Zrotation Xrotation Yrotation
        JOINT Chest
        {
            OFFSET -0.000000 31.471069 -0.000000
            CHANNELS 3 Zrotation Xrotation Yrotation
            JOINT Neck
            {
                OFFSET -0.000000 23.202770 0.000000
                CHANNELS 3 Zrotation Xrotation Yrotation
                JOINT Head
                {
                    OFFSET -0.000000 11.000000 0.000000
                    CHANNELS 3 Zrotation Xrotation Yrotation
                    End Site
                    {
                        OFFSET -0.000000 17.000000 0.000000
                    }
                }
            }
            JOINT LeftCollar
            {
                OFFSET -0.000000 23.202770 0.000000
                CHANNELS 3 Zrotation Xrotation Yrotation
                JOINT LeftShoulder
                {
                    OFFSET 21.000000 -0.000000 0.000000
                    CHANNELS 3 Zrotation Xrotation Yrotation
                    JOINT LeftElbow
                    {
                        OFFSET 23.506504 0.000000 0.000000
                        CHANNELS 3 Zrotation Xrotation Yrotation
                        JOINT LeftWrist
                        {
                            OFFSET 26.183235 0.000000 0.000000
                            CHANNELS 3 Zrotation Xrotation Yrotation
                            End Site
                            {
                                OFFSET 0.000000 -15.000001 0.000000
                            }
                        }
                    }
                }
            }
            JOINT RightCollar
            {
                OFFSET -0.000000 23.202770 0.000000
                CHANNELS 3 Zrotation Xrotation Yrotation
                JOINT RightShoulder
                {
                    OFFSET -21.000000 0.000000 0.000000
                    CHANNELS 3 Zrotation Xrotation Yrotation
                    JOINT RightElbow
                    {
                        OFFSET -23.506504 0.000000 0.000000
                        CHANNELS 3 Zrotation Xrotation Yrotation
                        JOINT RightWrist
                        {
                            OFFSET -26.183235 0.000000 0.000000
                            CHANNELS 3 Zrotation Xrotation Yrotation
                            End Site
                            {
                                OFFSET -0.000000 -15.000001 0.000000
                            }
                        }
                    }
                }
            }
        }
    JOINT LeftHip
    {
        OFFSET 12.000000 0.000000 0.000000
        CHANNELS 3 Zrotation Xrotation Yrotation
        JOINT LeftKnee
        {
            OFFSET -0.000000 -41.026867 0.000000
            CHANNELS 3 Zrotation Xrotation Yrotation
            JOINT LeftAnkle
            {
                OFFSET -0.000000 -42.711906 0.000000
                CHANNELS 3 Zrotation Xrotation Yrotation
                End Site
                {
                    OFFSET -0.000000 -5.000000 17.000000
                }
            }
        }
    }
    JOINT RightHip
    {
        OFFSET -12.000000 0.000000 0.000000
        CHANNELS 3 Zrotation Xrotation Yrotation
        JOINT RightKnee
        {
            OFFSET -0.000000 -41.026867 0.000000
            CHANNELS 3 Zrotation Xrotation Yrotation
            JOINT RightAnkle
            {
                OFFSET -0.000000 -42.711906 0.000000
                CHANNELS 3 Zrotation Xrotation Yrotation
                End Site
                {
                    OFFSET -0.000000 -5.000000 17.000000
                }
            }
        }
    }
}
MOTION
Frames:    6
Frame Time:    0.010000
121.616592    90.527763    -58.337605    -1.274692    -0.588313    -79.066277    -2.545027    0.327360    2.055151    2.213231    0.650447    11.656990    -11.049420    -15.082482    10.266873    -22.311306    -0.547772    2.877492    -45.018448    30.371231    -19.392254    1.633388    -0.655122    -43.707325    110.387726    12.249209    30.206892    25.966438    -0.392565    -1.581197    8.632730    67.578049    53.573254    -8.251150    -3.065732    40.468521    -121.139671    -1.553197    -17.228186    4.120475    0.198338    -5.545095    -0.673591    6.581248    -5.172814    -7.379746    -10.239712    34.770897    -3.088011    3.280817    -9.151166    -0.669080    10.425722    -10.230988    15.259999    -4.737474    -16.217993    
121.815002    90.506874    -58.632290    -1.128880    -0.608437    -78.870667    -2.468667    0.295874    2.130689    2.546095    1.207483    11.042461    -11.673903    -16.214405    9.395410    -22.469332    -0.440330    1.675416    -45.317314    30.801102    -18.797527    1.610574    -0.633364    -43.581211    110.942383    12.377323    30.208961    25.654957    -0.487880    -2.567530    9.872514    66.998589    52.729305    -8.285555    -3.049985    40.364368    -121.249908    -2.062238    -16.918701    4.231881    -0.527983    -5.857977    -0.737564    7.242332    -4.918140    -7.530584    -10.276819    34.616947    -3.023685    3.117823    -9.212873    -0.491124    10.312407    -10.275360    14.990326    -4.792324    -16.261482    
121.873795    90.455009    -58.910763    -1.191617    -0.521738    -78.809044    -2.128251    0.714969    2.157732    2.729470    0.365324    11.293699    -11.811065    -15.556334    9.685217    -22.589819    -0.381265    1.671216    -45.294376    30.751648    -19.149811    1.555341    -0.635404    -43.615967    111.369659    12.687565    30.013817    25.451958    -0.562353    -2.819532    8.588072    66.863014    53.752064    -8.298740    -3.087237    40.614899    -120.407921    -1.828177    -17.310303    4.675618    -0.874495    -5.713183    -1.051685    7.709851    -5.094511    -7.539178    -10.168095    34.557041    -2.625508    3.205347    -8.972028    -0.542630    10.090325    -10.990096    14.719267    -4.763384    -15.929103    
121.985138    90.438332    -59.134762    -1.165843    -0.501964    -78.720024    -1.959226    0.896251    2.198678    2.881230    0.123578    11.365529    -12.009436    -15.495619    9.729218    -22.686232    -0.356035    1.604689    -45.326420    30.834608    -19.256824    1.585800    -0.664418    -43.603050    111.666229    12.863379    29.943644    25.244066    -0.617576    -2.947462    8.570459    66.708672    53.775085    -8.240364    -3.082323    40.731594    -120.099007    -1.872943    -17.342438    4.893773    -1.276316    -5.718494    -1.209899    8.138320    -5.095772    -7.650994    -10.174334    34.466480    -2.444715    3.175969    -8.882205    -0.509338    9.970237    -11.292747    14.489831    -4.780518    -15.823534    
122.118797    90.421837    -59.391724    -1.135611    -0.486128    -78.618889    -1.770372    1.110808    2.243685    3.053300    -0.162595    11.445008    -12.226249    -15.401823    9.781870    -22.793676    -0.324694    1.525807    -45.359688    30.927088    -19.381130    1.586698    -0.637964    -43.560276    112.034836    13.055359    29.884548    25.014696    -0.645103    -3.088482    8.574718    66.479012    53.755447    -8.165055    -3.062659    40.889816    -119.719315    -1.889113    -17.395914    5.139654    -1.740808    -5.697519    -1.394366    8.633089    -5.112707    -7.808905    -10.200501    34.357319    -2.242123    3.136364    -8.770572    -0.476876    9.839540    -11.629392    14.220430    -4.804717    -15.716829    
122.272896    90.405167    -59.674229    -1.100090    -0.478659    -78.506142    -1.571983    1.351967    2.288040    3.240010    -0.478894    11.525867    -12.449224    -15.289784    9.835218    -22.907257    -0.307838    1.432849    -45.387295    31.059385    -19.529558    1.610064    -0.632876    -43.516338    112.429283    13.263493    29.830610    24.772972    -0.671369    -3.238262    8.594218    66.199921    53.696548    -8.110690    -3.060883    41.077209    -119.265884    -1.865396    -17.482182    5.403176    -2.260865    -5.642547    -1.599810    9.185486    -5.154964    -8.019588    -10.253385    34.232498    -2.026844    3.083745    -8.637401    -0.447370    9.703969    -11.981401    13.917917    -4.835777    -15.629154    
